<svg width="22" height="22" viewBox="0 0 22 22" fill="none" xmlns="http://www.w3.org/2000/svg">
<path d="M20.625 4.13525H17.125V1.95609C17.125 0.994529 16.3402 0.212753 15.375 0.212753H6.625C5.65977 0.212753 4.875 0.994529 4.875 1.95609V4.13525H1.375C0.891016 4.13525 0.5 4.52478 0.5 5.00692V5.87859C0.5 5.99844 0.598437 6.0965 0.71875 6.0965H2.37031L3.0457 20.3428C3.08945 21.2717 3.86055 22.0044 4.79297 22.0044H17.207C18.1422 22.0044 18.9105 21.2744 18.9543 20.3428L19.6297 6.0965H21.2812C21.4016 6.0965 21.5 5.99844 21.5 5.87859V5.00692C21.5 4.52478 21.109 4.13525 20.625 4.13525ZM15.1562 4.13525H6.84375V2.174H15.1562V4.13525Z" fill="#B88E2F"/>
</svg>
